<mxfile host="app.diagrams.net" agent="Mozilla/5.0 (Windows NT 10.0; Win64; x64) AppleWebKit/537.36 (KHTML, like Gecko) Chrome/136.0.0.0 Safari/537.36" version="26.2.14">
  <diagram name="Page-1" id="rXq8_T5vN307uHci7wvp">
    <mxGraphModel dx="2066" dy="1143" grid="1" gridSize="10" guides="1" tooltips="1" connect="1" arrows="1" fold="1" page="1" pageScale="1" pageWidth="850" pageHeight="1100" math="0" shadow="0">
      <root>
        <mxCell id="0" />
        <mxCell id="1" parent="0" />
        <mxCell id="_uktgQa82SUFEZ9GGLX1-12" value="Always Visible" style="rounded=1;whiteSpace=wrap;html=1;dashed=1;dashPattern=8 8;fillColor=none;align=left;" vertex="1" parent="1">
          <mxGeometry x="60" y="140" width="760" height="100" as="geometry" />
        </mxCell>
        <mxCell id="_uktgQa82SUFEZ9GGLX1-1" value="Login Page" style="ellipse;whiteSpace=wrap;html=1;" vertex="1" parent="1">
          <mxGeometry x="150" y="20" width="120" height="80" as="geometry" />
        </mxCell>
        <mxCell id="_uktgQa82SUFEZ9GGLX1-2" value="Home Icon" style="rounded=1;whiteSpace=wrap;html=1;" vertex="1" parent="1">
          <mxGeometry x="370" y="160" width="120" height="60" as="geometry" />
        </mxCell>
        <mxCell id="_uktgQa82SUFEZ9GGLX1-3" value="Opportunities Icon" style="rounded=1;whiteSpace=wrap;html=1;" vertex="1" parent="1">
          <mxGeometry x="520" y="160" width="120" height="60" as="geometry" />
        </mxCell>
        <mxCell id="_uktgQa82SUFEZ9GGLX1-4" value="Performance Icon" style="rounded=1;whiteSpace=wrap;html=1;" vertex="1" parent="1">
          <mxGeometry x="670" y="160" width="120" height="60" as="geometry" />
        </mxCell>
        <mxCell id="_uktgQa82SUFEZ9GGLX1-5" value="Left Menu" style="rounded=1;whiteSpace=wrap;html=1;" vertex="1" parent="1">
          <mxGeometry x="210" y="160" width="120" height="60" as="geometry" />
        </mxCell>
        <mxCell id="_uktgQa82SUFEZ9GGLX1-7" value="Opportunities Page" style="shape=note;whiteSpace=wrap;html=1;backgroundOutline=1;darkOpacity=0.05;" vertex="1" parent="1">
          <mxGeometry x="520" y="300" width="120" height="80" as="geometry" />
        </mxCell>
        <mxCell id="_uktgQa82SUFEZ9GGLX1-28" style="edgeStyle=orthogonalEdgeStyle;rounded=0;orthogonalLoop=1;jettySize=auto;html=1;exitX=0;exitY=0.5;exitDx=0;exitDy=0;exitPerimeter=0;" edge="1" parent="1" source="_uktgQa82SUFEZ9GGLX1-8" target="_uktgQa82SUFEZ9GGLX1-27">
          <mxGeometry relative="1" as="geometry" />
        </mxCell>
        <mxCell id="_uktgQa82SUFEZ9GGLX1-30" style="edgeStyle=orthogonalEdgeStyle;rounded=0;orthogonalLoop=1;jettySize=auto;html=1;exitX=0.5;exitY=1;exitDx=0;exitDy=0;exitPerimeter=0;" edge="1" parent="1" source="_uktgQa82SUFEZ9GGLX1-8" target="_uktgQa82SUFEZ9GGLX1-29">
          <mxGeometry relative="1" as="geometry" />
        </mxCell>
        <mxCell id="_uktgQa82SUFEZ9GGLX1-8" value="Performance Page" style="shape=note;whiteSpace=wrap;html=1;backgroundOutline=1;darkOpacity=0.05;" vertex="1" parent="1">
          <mxGeometry x="670" y="570" width="120" height="80" as="geometry" />
        </mxCell>
        <mxCell id="_uktgQa82SUFEZ9GGLX1-9" value="" style="endArrow=classic;html=1;rounded=0;entryX=0.5;entryY=1;entryDx=0;entryDy=0;exitX=0.5;exitY=0;exitDx=0;exitDy=0;" edge="1" parent="1" source="_uktgQa82SUFEZ9GGLX1-2" target="_uktgQa82SUFEZ9GGLX1-16">
          <mxGeometry width="50" height="50" relative="1" as="geometry">
            <mxPoint x="400" y="610" as="sourcePoint" />
            <mxPoint x="450" y="560" as="targetPoint" />
          </mxGeometry>
        </mxCell>
        <mxCell id="_uktgQa82SUFEZ9GGLX1-10" value="" style="endArrow=classic;html=1;rounded=0;entryX=0.5;entryY=0;entryDx=0;entryDy=0;exitX=0.5;exitY=1;exitDx=0;exitDy=0;entryPerimeter=0;" edge="1" parent="1" source="_uktgQa82SUFEZ9GGLX1-3" target="_uktgQa82SUFEZ9GGLX1-7">
          <mxGeometry width="50" height="50" relative="1" as="geometry">
            <mxPoint x="440" y="170" as="sourcePoint" />
            <mxPoint x="610" y="-10" as="targetPoint" />
          </mxGeometry>
        </mxCell>
        <mxCell id="_uktgQa82SUFEZ9GGLX1-11" value="" style="endArrow=classic;html=1;rounded=0;entryX=0.5;entryY=0;entryDx=0;entryDy=0;exitX=0.5;exitY=1;exitDx=0;exitDy=0;entryPerimeter=0;" edge="1" parent="1" source="_uktgQa82SUFEZ9GGLX1-4" target="_uktgQa82SUFEZ9GGLX1-8">
          <mxGeometry width="50" height="50" relative="1" as="geometry">
            <mxPoint x="590" y="230" as="sourcePoint" />
            <mxPoint x="590" y="310" as="targetPoint" />
          </mxGeometry>
        </mxCell>
        <mxCell id="_uktgQa82SUFEZ9GGLX1-13" value="Left Menu List" style="swimlane;horizontal=0;whiteSpace=wrap;html=1;" vertex="1" parent="1">
          <mxGeometry x="70" y="310" width="200" height="200" as="geometry" />
        </mxCell>
        <mxCell id="_uktgQa82SUFEZ9GGLX1-15" value="" style="endArrow=classic;html=1;rounded=0;entryX=0.5;entryY=0;entryDx=0;entryDy=0;exitX=0.5;exitY=1;exitDx=0;exitDy=0;" edge="1" parent="1" source="_uktgQa82SUFEZ9GGLX1-5" target="_uktgQa82SUFEZ9GGLX1-13">
          <mxGeometry width="50" height="50" relative="1" as="geometry">
            <mxPoint x="400" y="330" as="sourcePoint" />
            <mxPoint x="590" y="310" as="targetPoint" />
          </mxGeometry>
        </mxCell>
        <mxCell id="_uktgQa82SUFEZ9GGLX1-17" style="edgeStyle=orthogonalEdgeStyle;rounded=0;orthogonalLoop=1;jettySize=auto;html=1;exitX=0;exitY=0.5;exitDx=0;exitDy=0;entryX=1;entryY=0.5;entryDx=0;entryDy=0;" edge="1" parent="1" source="_uktgQa82SUFEZ9GGLX1-16" target="_uktgQa82SUFEZ9GGLX1-1">
          <mxGeometry relative="1" as="geometry" />
        </mxCell>
        <mxCell id="_uktgQa82SUFEZ9GGLX1-18" value="No" style="edgeLabel;html=1;align=center;verticalAlign=middle;resizable=0;points=[];" vertex="1" connectable="0" parent="_uktgQa82SUFEZ9GGLX1-17">
          <mxGeometry x="-0.2" y="3" relative="1" as="geometry">
            <mxPoint as="offset" />
          </mxGeometry>
        </mxCell>
        <mxCell id="_uktgQa82SUFEZ9GGLX1-20" style="edgeStyle=orthogonalEdgeStyle;rounded=0;orthogonalLoop=1;jettySize=auto;html=1;exitX=1;exitY=0.5;exitDx=0;exitDy=0;entryX=0;entryY=0.5;entryDx=0;entryDy=0;entryPerimeter=0;" edge="1" parent="1" source="_uktgQa82SUFEZ9GGLX1-16" target="_uktgQa82SUFEZ9GGLX1-22">
          <mxGeometry relative="1" as="geometry">
            <mxPoint x="600" y="60" as="targetPoint" />
          </mxGeometry>
        </mxCell>
        <mxCell id="_uktgQa82SUFEZ9GGLX1-21" value="Yes" style="edgeLabel;html=1;align=center;verticalAlign=middle;resizable=0;points=[];" vertex="1" connectable="0" parent="_uktgQa82SUFEZ9GGLX1-20">
          <mxGeometry x="-0.1385" y="-4" relative="1" as="geometry">
            <mxPoint as="offset" />
          </mxGeometry>
        </mxCell>
        <mxCell id="_uktgQa82SUFEZ9GGLX1-16" value="Logged In?" style="rhombus;whiteSpace=wrap;html=1;" vertex="1" parent="1">
          <mxGeometry x="390" y="20" width="80" height="80" as="geometry" />
        </mxCell>
        <mxCell id="_uktgQa82SUFEZ9GGLX1-22" value="Dashboard Page" style="shape=note;whiteSpace=wrap;html=1;backgroundOutline=1;darkOpacity=0.05;" vertex="1" parent="1">
          <mxGeometry x="620" y="20" width="120" height="80" as="geometry" />
        </mxCell>
        <mxCell id="_uktgQa82SUFEZ9GGLX1-23" value="Add New Opportunity Page" style="shape=note;whiteSpace=wrap;html=1;backgroundOutline=1;darkOpacity=0.05;" vertex="1" parent="1">
          <mxGeometry x="380" y="440" width="120" height="80" as="geometry" />
        </mxCell>
        <mxCell id="_uktgQa82SUFEZ9GGLX1-24" style="edgeStyle=orthogonalEdgeStyle;rounded=0;orthogonalLoop=1;jettySize=auto;html=1;exitX=0.228;exitY=0.992;exitDx=0;exitDy=0;exitPerimeter=0;entryX=0.5;entryY=0;entryDx=0;entryDy=0;entryPerimeter=0;" edge="1" parent="1" source="_uktgQa82SUFEZ9GGLX1-7" target="_uktgQa82SUFEZ9GGLX1-23">
          <mxGeometry relative="1" as="geometry" />
        </mxCell>
        <mxCell id="_uktgQa82SUFEZ9GGLX1-25" value="Modify an Opportunity Page" style="shape=note;whiteSpace=wrap;html=1;backgroundOutline=1;darkOpacity=0.05;" vertex="1" parent="1">
          <mxGeometry x="520" y="440" width="120" height="80" as="geometry" />
        </mxCell>
        <mxCell id="_uktgQa82SUFEZ9GGLX1-26" style="edgeStyle=orthogonalEdgeStyle;rounded=0;orthogonalLoop=1;jettySize=auto;html=1;exitX=0.5;exitY=1;exitDx=0;exitDy=0;exitPerimeter=0;entryX=0.5;entryY=0;entryDx=0;entryDy=0;entryPerimeter=0;" edge="1" parent="1" source="_uktgQa82SUFEZ9GGLX1-7" target="_uktgQa82SUFEZ9GGLX1-25">
          <mxGeometry relative="1" as="geometry" />
        </mxCell>
        <mxCell id="_uktgQa82SUFEZ9GGLX1-27" value="Monthly Target Definition Page" style="shape=note;whiteSpace=wrap;html=1;backgroundOutline=1;darkOpacity=0.05;" vertex="1" parent="1">
          <mxGeometry x="490" y="690" width="120" height="80" as="geometry" />
        </mxCell>
        <mxCell id="_uktgQa82SUFEZ9GGLX1-29" value="Performance Report Page" style="shape=note;whiteSpace=wrap;html=1;backgroundOutline=1;darkOpacity=0.05;" vertex="1" parent="1">
          <mxGeometry x="640" y="690" width="120" height="80" as="geometry" />
        </mxCell>
        <mxCell id="_uktgQa82SUFEZ9GGLX1-31" value="User Setup Page" style="shape=note;whiteSpace=wrap;html=1;backgroundOutline=1;darkOpacity=0.05;" vertex="1" parent="1">
          <mxGeometry x="210" y="570" width="120" height="80" as="geometry" />
        </mxCell>
        <mxCell id="_uktgQa82SUFEZ9GGLX1-32" value="App Setup Page" style="shape=note;whiteSpace=wrap;html=1;backgroundOutline=1;darkOpacity=0.05;" vertex="1" parent="1">
          <mxGeometry x="210" y="680" width="120" height="80" as="geometry" />
        </mxCell>
        <mxCell id="_uktgQa82SUFEZ9GGLX1-33" value="Opportunities Workflow Page" style="shape=note;whiteSpace=wrap;html=1;backgroundOutline=1;darkOpacity=0.05;" vertex="1" parent="1">
          <mxGeometry x="210" y="800" width="120" height="80" as="geometry" />
        </mxCell>
        <mxCell id="_uktgQa82SUFEZ9GGLX1-34" value="About This App Page" style="shape=note;whiteSpace=wrap;html=1;backgroundOutline=1;darkOpacity=0.05;" vertex="1" parent="1">
          <mxGeometry x="210" y="910" width="120" height="80" as="geometry" />
        </mxCell>
        <mxCell id="_uktgQa82SUFEZ9GGLX1-35" style="edgeStyle=orthogonalEdgeStyle;rounded=0;orthogonalLoop=1;jettySize=auto;html=1;exitX=0.25;exitY=1;exitDx=0;exitDy=0;entryX=0;entryY=0.5;entryDx=0;entryDy=0;entryPerimeter=0;" edge="1" parent="1" source="_uktgQa82SUFEZ9GGLX1-13" target="_uktgQa82SUFEZ9GGLX1-31">
          <mxGeometry relative="1" as="geometry" />
        </mxCell>
        <mxCell id="_uktgQa82SUFEZ9GGLX1-36" style="edgeStyle=orthogonalEdgeStyle;rounded=0;orthogonalLoop=1;jettySize=auto;html=1;exitX=0.25;exitY=1;exitDx=0;exitDy=0;entryX=0.006;entryY=0.625;entryDx=0;entryDy=0;entryPerimeter=0;" edge="1" parent="1" source="_uktgQa82SUFEZ9GGLX1-13" target="_uktgQa82SUFEZ9GGLX1-32">
          <mxGeometry relative="1" as="geometry" />
        </mxCell>
        <mxCell id="_uktgQa82SUFEZ9GGLX1-37" style="edgeStyle=orthogonalEdgeStyle;rounded=0;orthogonalLoop=1;jettySize=auto;html=1;exitX=0.25;exitY=1;exitDx=0;exitDy=0;entryX=0;entryY=0.5;entryDx=0;entryDy=0;entryPerimeter=0;" edge="1" parent="1" source="_uktgQa82SUFEZ9GGLX1-13" target="_uktgQa82SUFEZ9GGLX1-33">
          <mxGeometry relative="1" as="geometry" />
        </mxCell>
        <mxCell id="_uktgQa82SUFEZ9GGLX1-38" style="edgeStyle=orthogonalEdgeStyle;rounded=0;orthogonalLoop=1;jettySize=auto;html=1;exitX=0.25;exitY=1;exitDx=0;exitDy=0;entryX=0;entryY=0.5;entryDx=0;entryDy=0;entryPerimeter=0;" edge="1" parent="1" source="_uktgQa82SUFEZ9GGLX1-13" target="_uktgQa82SUFEZ9GGLX1-34">
          <mxGeometry relative="1" as="geometry" />
        </mxCell>
      </root>
    </mxGraphModel>
  </diagram>
</mxfile>
